<?xml version="1.0" encoding="UTF-8"?>
<svg width="500px" height="500px" viewBox="0 0 500 500" version="1.1" xmlns="http://www.w3.org/2000/svg" xmlns:xlink="http://www.w3.org/1999/xlink">
    <!-- Generator: Sketch 41.2 (35397) - http://www.bohemiancoding.com/sketch -->
    <title>Artboard</title>
    <desc>Created with Sketch.</desc>
    <defs></defs>
    <g id="Page-1" stroke="none" stroke-width="1" fill="none" fill-rule="evenodd">
        <g id="Artboard">
            <path d="M394.688,284.568012 L394.688,84.776012 C394.688,65.032012 378.688,49.000012 358.912,49.000012 L45.776,49.000012 C26.016,48.984012 10,65.016012 10,84.776012 L10,284.568012 C10,304.328012 26.016,320.344012 45.776,320.344012 L105.44,320.344012 L105.44,402.536012 L196.704,320.344012 L358.896,320.344012 C378.688,320.344012 394.688,304.328012 394.688,284.568012 Z" id="Shape" fill="#39A5C8"></path>
            <path d="M454.256,127.544012 L409.488,127.544012 L409.488,302.088012 C409.488,317.080012 390.032,336.360012 375.04,336.360012 C360.048,336.360012 199.92,337.240012 199.92,337.240012 C199.92,357.000012 215.936,369.016012 235.696,369.016012 L304.64,369.016012 L394.592,450.648012 L394.48,369.016012 L454.256,369.016012 C474.032,369.016012 490.032,357.000012 490.032,337.240012 L490.032,162.328012 C490.032,142.584012 474.032,127.544012 454.256,127.544012 Z" id="Path" fill="#78A300"></path>
            <path d="M165.412873,186.014129 C165.412873,180.089452 166.974082,175.605981 170.096546,172.563579 C173.219011,169.521178 177.342204,168 182.466248,168 C188.070672,168 192.394019,169.521178 195.436421,172.563579 C198.478822,175.605981 200,180.089452 200,186.014129 C200,191.778679 198.438791,196.26215 195.316327,199.464678 C192.193862,202.667206 187.910545,204.268446 182.466248,204.268446 C177.182077,204.268446 173.018854,202.667206 169.976452,199.464678 C166.934051,196.26215 165.412873,191.778679 165.412873,186.014129 Z M106.326531,186.014129 C106.326531,180.089452 107.887739,175.605981 111.010204,172.563579 C114.132669,169.521178 118.255861,168 123.379906,168 C128.984329,168 133.307677,169.521178 136.350078,172.563579 C139.39248,175.605981 140.913658,180.089452 140.913658,186.014129 C140.913658,191.778679 139.352449,196.26215 136.229984,199.464678 C133.10752,202.667206 128.824203,204.268446 123.379906,204.268446 C118.095735,204.268446 113.932511,202.667206 110.89011,199.464678 C107.847708,196.26215 106.326531,191.778679 106.326531,186.014129 Z M47,186.014129 C47,180.089452 48.5612089,175.605981 51.6836735,172.563579 C54.8061381,169.521178 58.9293307,168 64.0533752,168 C69.6577988,168 73.9811465,169.521178 77.0235479,172.563579 C80.0659493,175.605981 81.5871272,180.089452 81.5871272,186.014129 C81.5871272,191.778679 80.0259183,196.26215 76.9034537,199.464678 C73.7809891,202.667206 69.4976724,204.268446 64.0533752,204.268446 C58.7692043,204.268446 54.6059807,202.667206 51.5635793,199.464678 C48.5211779,196.26215 47,191.778679 47,186.014129 Z" id="…" fill="#FFFFFF"></path>
            <path d="M220,176.482759 L275.785084,176.482759 L275.785084,191.696872 L220,191.696872 L220,176.482759 Z M300.214916,176.482759 L356,176.482759 L356,191.696872 L300.214916,191.696872 L300.214916,176.482759 Z" id="___" fill="#FFFFFF"></path>
        </g>
    </g>
</svg>